<svg width="91" height="124" viewBox="0 0 91 124" fill="none" xmlns="http://www.w3.org/2000/svg">
<path d="M67 46.4883C67 58.3624 57.3741 67.9883 45.5 67.9883C33.6259 67.9883 24 58.3624 24 46.4883C24 34.6142 33.6259 24.9883 45.5 24.9883C57.3741 24.9883 67 34.6142 67 46.4883ZM30.7867 46.4883C30.7867 54.6142 37.3741 61.2016 45.5 61.2016C53.6259 61.2016 60.2133 54.6142 60.2133 46.4883C60.2133 38.3624 53.6259 31.775 45.5 31.775C37.3741 31.775 30.7867 38.3624 30.7867 46.4883Z" fill="black"/>
<path d="M5 46.3271C5 90.4883 45.5296 118.988 45.5296 118.988C45.5296 118.988 85.6946 90.4883 85.6946 46.5228C85.6946 35.5 76 5.48828 45.5296 5.48828C15.0592 5.48828 5.36513 35.5 5 46.3271Z" stroke="black" stroke-width="9" stroke-linejoin="round"/>
</svg>
